<?xml version="1.0" standalone="no"?>
<!DOCTYPE svg PUBLIC "-//W3C//DTD SVG 20010904//EN"
 "http://www.w3.org/TR/2001/REC-SVG-20010904/DTD/svg10.dtd">
<svg version="1.0" xmlns="http://www.w3.org/2000/svg"
 width="1080.000000pt" height="1080.000000pt" viewBox="0 0 1080.000000 1080.000000"
 preserveAspectRatio="xMidYMid meet">

<g transform="translate(0.000000,1080.000000) scale(0.100000,-0.100000)"
fill="#000000" stroke="none">
<path d="M6305 8973 c-31 -9 -83 -52 -105 -88 -28 -45 -27 -124 2 -169 20 -31
133 -116 154 -116 5 0 30 -18 57 -41 53 -46 60 -76 26 -110 -18 -18 -29 -21
-69 -16 -59 7 -146 48 -200 94 l-41 36 -29 -34 c-16 -19 -29 -41 -30 -50 -1
-38 124 -117 230 -144 81 -21 144 -21 195 0 54 23 73 41 97 94 25 56 20 109
-17 157 -25 33 -151 124 -172 124 -6 0 -29 18 -52 40 -28 28 -39 45 -34 57 10
29 33 51 59 57 42 11 182 -40 213 -78 8 -9 18 -16 24 -16 18 0 67 52 67 71 0
24 -48 62 -126 99 -53 25 -83 32 -148 35 -44 2 -90 1 -101 -2z"/>
<path d="M5131 8934 c-42 -29 -55 -33 -62 -23 -5 8 -9 17 -9 22 0 4 -27 7 -61
7 l-61 0 6 -42 c3 -24 10 -108 16 -188 19 -267 17 -263 104 -247 l58 11 -6 50
c-4 28 -9 94 -12 146 l-6 96 34 37 c25 26 46 38 77 43 l43 7 -7 50 c-3 28 -8
54 -11 59 -11 17 -52 6 -103 -28z"/>
<path d="M4535 8871 c-35 -9 -104 -51 -125 -76 -49 -59 -62 -103 -58 -187 5
-79 20 -111 81 -169 82 -79 266 -76 373 6 59 45 60 59 11 93 l-44 29 -35 -32
c-59 -55 -178 -59 -218 -7 -24 30 -19 37 35 51 22 6 60 15 85 21 25 7 68 18
95 25 28 8 67 17 88 20 45 7 47 20 13 90 -31 62 -51 86 -99 115 -42 25 -146
36 -202 21z m125 -106 c16 -8 35 -25 41 -37 14 -27 -6 -45 -60 -53 -20 -3 -54
-11 -76 -16 -92 -24 -85 -25 -85 14 0 79 103 132 180 92z"/>
<path d="M3975 8679 c-53 -22 -111 -70 -121 -102 -6 -18 -7 -18 -28 2 -19 18
-25 19 -41 7 -11 -7 -33 -16 -49 -20 -26 -6 -28 -10 -23 -43 4 -19 13 -43 22
-53 8 -9 15 -23 15 -31 0 -9 7 -24 15 -35 8 -10 15 -24 15 -31 0 -13 87 -204
120 -265 11 -20 20 -43 20 -51 0 -8 6 -20 14 -26 7 -6 16 -25 20 -41 7 -40 26
-46 80 -25 53 21 60 40 34 97 -11 24 -28 61 -39 84 -10 23 -19 44 -19 48 0 3
28 6 61 6 100 0 186 58 227 153 45 103 -28 270 -142 323 -62 29 -114 30 -181
3z m141 -134 c19 -15 36 -42 48 -77 18 -52 18 -54 0 -92 -26 -54 -61 -78 -117
-78 -157 0 -192 226 -42 271 39 11 72 4 111 -24z"/>
<path d="M5619 8611 c-19 -15 -24 -28 -23 -65 1 -61 16 -76 74 -76 40 0 52 4
69 26 28 36 26 66 -5 103 -31 37 -79 42 -115 12z"/>
<path d="M6811 8599 c-45 -14 -125 -98 -146 -154 -24 -62 -16 -148 19 -203 56
-89 130 -133 237 -140 88 -5 123 7 183 65 55 54 78 106 79 178 1 142 -114 255
-268 261 -38 2 -85 -1 -104 -7z m166 -118 c50 -23 73 -62 73 -123 0 -52 -44
-112 -98 -135 -30 -12 -40 -12 -81 2 -84 28 -115 118 -66 195 24 38 83 79 115
79 8 0 34 -8 57 -18z"/>
<path d="M7464 8418 c-16 -13 -37 -33 -48 -46 l-18 -23 -34 20 -33 20 -21 -26
c-26 -33 -26 -68 1 -87 22 -15 21 -16 -50 -114 -39 -55 -71 -104 -71 -110 0
-6 -6 -15 -13 -19 -16 -10 -57 -63 -57 -74 0 -11 67 -55 96 -63 21 -6 49 27
154 183 14 20 36 51 50 69 l25 32 51 -34 51 -35 22 29 c29 40 27 66 -7 84 -59
30 -63 64 -13 90 29 15 48 10 88 -27 l22 -20 36 24 c19 13 35 31 35 40 0 20
-71 86 -106 99 -48 19 -129 12 -160 -12z"/>
<path d="M3385 8350 c-55 -28 -141 -123 -149 -163 -17 -83 -17 -101 -2 -152
49 -153 212 -217 362 -141 182 92 208 314 51 440 -36 29 -45 31 -130 34 -78 3
-98 0 -132 -18z m154 -108 c50 -25 74 -63 79 -125 4 -46 1 -57 -22 -84 -67
-79 -180 -60 -232 39 -30 57 -5 129 58 168 40 24 72 25 117 2z"/>
<path d="M2846 8157 l-48 -42 37 -45 c20 -25 96 -108 169 -184 72 -77 155
-165 185 -198 29 -32 60 -58 68 -58 24 0 83 54 83 75 0 19 -76 105 -330 372
l-116 123 -48 -43z"/>
<path d="M7744 8155 c-30 -40 -42 -43 -75 -16 -23 18 -23 18 -51 -17 l-28 -35
20 -22 c11 -12 20 -27 20 -35 0 -7 -35 -48 -77 -92 -96 -97 -120 -149 -101
-217 15 -50 62 -102 118 -131 46 -23 50 -24 50 -7 0 6 7 25 16 42 15 29 15 30
-20 58 -58 47 -51 74 41 168 42 44 79 79 83 79 3 0 20 -13 38 -30 42 -38 62
-38 91 1 l23 31 -42 43 -42 42 31 36 c17 19 31 41 31 49 0 16 -73 88 -89 88
-6 0 -22 -16 -37 -35z"/>
<path d="M7967 7833 c-6 -16 -14 -30 -17 -33 -10 -10 -50 -69 -50 -75 0 -2
-16 -25 -35 -51 -19 -25 -35 -50 -35 -55 0 -5 -8 -17 -17 -28 -38 -40 -94
-141 -89 -159 4 -10 22 -35 41 -56 25 -28 39 -36 52 -31 10 4 36 11 58 16 22
5 49 13 60 18 33 15 155 44 161 38 6 -6 -31 -70 -68 -118 -15 -20 -28 -40 -28
-44 0 -4 -13 -24 -28 -44 -16 -20 -32 -41 -35 -48 -4 -6 11 -34 34 -63 44 -56
54 -58 139 -26 19 7 60 20 90 29 30 9 89 25 130 37 41 12 88 28 103 36 16 8
37 14 48 14 24 0 24 2 -7 47 -40 59 -31 58 -179 9 -27 -10 -66 -21 -85 -26
-19 -4 -49 -14 -67 -21 -18 -7 -35 -10 -38 -7 -4 4 36 71 88 149 94 140 95
143 79 168 -35 57 -52 69 -80 60 -15 -5 -61 -18 -102 -29 -41 -12 -86 -26
-100 -32 -38 -17 -100 -27 -100 -16 0 5 41 69 91 143 l91 135 -26 45 c-31 53
-60 59 -79 18z"/>
<path d="M2810 7780 c-39 -8 -97 -32 -121 -52 -34 -28 -89 -111 -89 -133 0
-13 -5 -34 -10 -47 -8 -17 -7 -40 4 -86 19 -83 83 -152 170 -183 59 -20 128
-19 142 2 3 5 14 9 26 9 12 0 48 28 88 68 56 57 71 79 85 125 24 83 20 92 -40
92 -49 0 -49 0 -57 -37 -18 -85 -93 -152 -165 -146 -20 2 -38 8 -40 13 -3 10
58 89 167 216 l63 73 -39 32 c-21 18 -47 35 -59 38 -11 2 -36 9 -55 13 -19 5
-51 6 -70 3z m54 -123 c22 -16 19 -23 -44 -98 -25 -29 -54 -64 -66 -78 -34
-40 -54 -23 -54 46 0 45 5 64 23 85 42 51 105 71 141 45z"/>
<path d="M2415 7367 c-14 -24 -25 -51 -25 -60 0 -8 35 -61 78 -117 99 -131
122 -163 122 -170 0 -7 -156 7 -210 19 -25 6 -68 10 -96 11 l-51 0 -32 -59
-31 -59 87 -6 c49 -4 110 -11 137 -16 26 -6 102 -15 168 -21 137 -11 138 -11
178 65 l23 42 -117 155 c-65 85 -136 178 -157 207 -22 28 -42 52 -44 52 -2 0
-16 -20 -30 -43z"/>
<path d="M8483 7038 c-36 -46 -36 -56 9 -108 45 -52 55 -75 57 -126 2 -55 -61
-111 -75 -66 -15 46 -49 120 -71 155 -58 93 -195 91 -243 -3 -27 -54 -25 -89
11 -165 23 -50 40 -70 71 -89 36 -22 38 -25 19 -31 -24 -7 -27 -22 -7 -50 7
-11 16 -32 20 -47 7 -32 17 -34 54 -14 15 8 74 35 132 60 168 73 210 117 210
223 0 51 -6 73 -36 130 -56 109 -123 166 -151 131z m-143 -208 c19 -10 70
-107 70 -133 0 -8 -13 -20 -29 -27 -37 -15 -83 7 -111 53 -24 39 -25 65 -4 95
16 24 44 28 74 12z"/>
<path d="M2218 6786 c-117 -25 -188 -121 -188 -252 0 -88 8 -110 57 -165 97
-108 253 -117 356 -20 66 60 109 203 89 291 -10 43 -31 49 -72 19 -27 -20 -30
-28 -30 -76 0 -34 -7 -68 -20 -92 -21 -42 -74 -81 -109 -81 -25 0 -26 18 -5
75 9 22 22 58 29 80 8 22 27 77 43 122 l30 83 -36 9 c-73 18 -88 19 -144 7z
m54 -112 c7 -7 -8 -68 -28 -111 -8 -17 -14 -37 -14 -45 -1 -7 -9 -28 -19 -46
l-17 -34 -32 27 c-27 23 -32 34 -32 71 0 56 22 99 63 124 31 19 68 26 79 14z"/>
<path d="M8750 6498 c-14 -6 -47 -17 -75 -24 -100 -24 -170 -46 -179 -55 -6
-5 -22 -9 -37 -9 -15 0 -52 -9 -82 -21 -54 -21 -54 -21 -46 -52 4 -18 11 -45
14 -61 5 -25 9 -28 38 -23 18 2 46 9 62 15 151 51 218 56 261 18 16 -13 33
-39 40 -57 8 -24 17 -33 30 -32 46 5 85 16 90 25 12 19 -6 54 -51 99 l-45 46
24 11 c26 11 26 10 5 95 -11 40 -12 41 -49 25z"/>
<path d="M1906 6211 c-32 -16 -71 -42 -87 -57 -39 -37 -88 -143 -95 -202 -3
-26 -10 -65 -15 -87 -5 -22 -13 -79 -17 -127 -9 -99 -9 -98 64 -98 25 0 54 -4
64 -10 10 -5 62 -14 116 -20 55 -6 117 -15 139 -21 62 -15 208 -27 226 -18 11
5 18 36 27 111 7 57 17 128 22 158 10 54 5 148 -9 179 -43 91 -60 117 -93 145
-93 80 -236 99 -342 47z m232 -142 c80 -39 100 -93 94 -255 -3 -95 -8 -98
-132 -84 -58 6 -123 15 -145 20 -22 5 -61 12 -87 15 l-48 6 0 58 c0 207 150
321 318 240z"/>
<path d="M8616 6080 c-38 -10 -90 -41 -114 -70 -7 -8 -25 -39 -39 -69 -23 -47
-25 -62 -20 -135 5 -84 25 -139 67 -183 29 -32 43 -29 73 14 26 36 26 38 8 58
-10 11 -26 43 -35 71 -19 59 -10 101 32 147 40 42 50 35 57 -40 4 -38 11 -84
15 -103 5 -19 12 -70 15 -112 l7 -78 33 0 c47 0 121 34 160 74 49 51 69 112
63 193 -8 95 -49 165 -122 208 -49 29 -139 40 -200 25z m160 -136 c31 -8 64
-70 64 -122 0 -31 -7 -46 -37 -76 -20 -20 -42 -35 -47 -33 -6 2 -16 39 -22 83
-6 43 -14 91 -19 106 -9 36 0 62 21 54 9 -3 27 -9 40 -12z"/>
<path d="M2184 5132 l-121 -127 -44 30 c-24 17 -72 51 -105 77 -78 60 -89 61
-80 6 14 -90 26 -112 82 -153 31 -22 78 -61 107 -87 l52 -46 -40 -6 c-22 -3
-65 -11 -95 -17 -44 -9 -136 -20 -236 -28 -15 -1 1 -100 18 -117 10 -10 36
-11 118 -3 58 5 119 13 135 18 17 5 64 12 107 15 42 4 107 13 145 21 37 8 85
15 106 15 47 0 53 14 37 80 l-12 50 -59 0 c-48 0 -67 5 -100 27 l-40 26 34 36
c18 20 57 61 85 91 l53 55 -7 75 c-3 41 -9 78 -13 82 -3 4 -61 -50 -127 -120z"/>
<path d="M8470 5172 c0 -28 -5 -63 -10 -78 -6 -14 -13 -67 -16 -118 -3 -50
-10 -104 -14 -121 -5 -16 -12 -52 -16 -78 l-6 -48 58 3 59 3 8 70 c7 64 21
158 33 228 5 26 8 27 67 27 34 0 68 -4 74 -8 12 -8 7 -119 -13 -259 -6 -41 -6
-42 29 -48 68 -13 71 -10 83 95 7 52 15 116 19 143 l8 47 42 0 c23 0 56 -5 74
-11 36 -13 38 -27 17 -116 -18 -72 -29 -204 -19 -219 5 -6 26 -14 49 -17 l41
-7 12 55 c7 30 18 109 26 177 7 68 16 130 18 138 3 8 8 34 11 57 6 40 5 42
-27 52 -19 7 -82 16 -141 21 -59 5 -111 12 -115 15 -5 3 -69 12 -143 21 -73 9
-150 18 -170 21 l-38 5 0 -50z"/>
<path d="M8391 4646 c-8 -10 -30 -85 -31 -107 0 -7 76 -37 124 -50 116 -29
182 -72 192 -124 9 -49 -12 -103 -50 -126 -40 -25 -75 -19 -263 49 -45 17 -84
27 -87 24 -3 -3 -6 -13 -6 -22 0 -9 -7 -31 -16 -49 -9 -17 -14 -37 -11 -44 3
-7 69 -35 148 -62 217 -73 286 -65 355 37 26 39 28 51 29 130 0 79 2 88 20 90
21 3 39 34 48 84 7 36 20 29 -163 89 -47 15 -99 34 -117 41 -17 8 -39 14 -50
14 -10 0 -29 6 -43 13 -41 21 -68 26 -79 13z"/>
<path d="M2290 4635 c-7 -8 -15 -35 -18 -60 -4 -40 -2 -45 19 -54 13 -5 35
-21 49 -36 21 -22 25 -37 25 -85 0 -71 -23 -101 -96 -125 -60 -20 -108 -8
-151 39 -22 24 -28 40 -28 76 0 26 7 56 16 69 16 22 15 24 -17 57 -54 55 -78
45 -105 -46 -14 -47 -14 -57 1 -117 26 -105 70 -162 154 -202 102 -48 249 -4
305 92 43 74 51 128 31 205 -25 93 -78 172 -116 172 -9 0 -22 7 -29 15 -16 19
-24 19 -40 0z"/>
<path d="M8049 4142 c-49 -37 -98 -91 -115 -127 -8 -16 -18 -37 -23 -45 -62
-107 -51 -210 30 -287 19 -17 99 -69 179 -115 201 -116 235 -132 253 -125 9 3
26 25 38 48 l21 42 -23 18 -24 18 28 10 c52 20 86 54 116 116 68 138 22 262
-122 328 -42 18 -132 23 -142 7 -3 -5 -16 -10 -28 -10 -29 0 -137 -114 -137
-144 0 -12 -5 -27 -11 -33 -6 -6 -10 -30 -7 -52 2 -23 0 -41 -4 -41 -5 0 -25
15 -46 34 -33 31 -37 39 -36 83 1 57 30 109 94 167 49 44 55 76 19 112 l-24
23 -36 -27z m309 -247 c26 -11 46 -29 60 -54 27 -48 27 -71 2 -120 -29 -57
-64 -81 -119 -81 -52 1 -85 23 -117 77 -16 29 -17 37 -5 70 22 60 42 84 86
104 49 23 46 22 93 4z"/>
<path d="M2472 4110 c-149 -79 -198 -109 -218 -132 -33 -37 -56 -107 -49 -148
11 -58 66 -159 113 -206 54 -55 82 -57 108 -9 l19 35 -38 31 c-71 59 -101 164
-57 204 28 25 41 16 78 -57 18 -36 52 -84 74 -107 39 -39 44 -41 99 -41 51 0
63 4 94 31 34 30 35 34 35 101 0 56 -5 78 -25 112 -24 42 -62 76 -100 90 -19
7 -19 8 5 26 22 17 23 20 9 37 -8 10 -20 30 -27 46 -15 36 -33 34 -120 -13z
m92 -152 c55 -25 87 -126 47 -148 -52 -27 -87 -4 -136 92 -19 37 -19 38 0 52
24 19 55 20 89 4z"/>
<path d="M2760 3670 c-17 -34 -18 -41 -6 -46 24 -9 48 -54 42 -78 -5 -20 -121
-116 -176 -146 -21 -11 -26 -9 -57 29 -40 47 -51 50 -81 18 -27 -29 -28 -49
-3 -71 35 -32 33 -54 -10 -88 -21 -17 -39 -37 -39 -43 0 -7 16 -33 36 -59 l35
-46 46 35 46 35 26 -31 26 -31 40 35 c39 34 40 35 21 56 -22 25 -16 45 22 68
83 51 162 121 181 161 25 52 26 70 4 119 -22 48 -92 123 -115 123 -10 0 -26
-16 -38 -40z"/>
<path d="M7836 3528 c-20 -23 -36 -47 -36 -53 0 -7 48 -48 106 -91 58 -43 126
-96 151 -117 41 -35 117 -87 126 -87 1 0 20 23 42 51 33 44 37 53 24 63 -8 6
-60 45 -115 86 -54 41 -105 80 -112 87 -19 18 -138 103 -145 103 -3 0 -22 -19
-41 -42z"/>
<path d="M7673 3328 l-41 -43 95 -100 c52 -55 99 -110 104 -123 18 -46 11 -90
-22 -127 -26 -30 -37 -35 -74 -35 -50 0 -61 8 -175 124 -46 47 -89 86 -95 86
-19 0 -74 -55 -77 -77 -2 -16 29 -54 111 -137 98 -100 122 -118 167 -133 47
-14 59 -15 96 -3 84 27 168 121 168 188 0 26 7 28 30 7 15 -13 21 -10 60 30
l43 44 -163 170 c-89 94 -168 171 -174 171 -7 0 -30 -19 -53 -42z"/>
<path d="M2960 3332 c-54 -24 -110 -98 -110 -146 0 -41 24 -107 57 -159 77
-119 89 -180 42 -206 -24 -14 -31 -13 -69 4 -49 22 -78 54 -121 136 -24 45
-36 58 -48 53 -9 -3 -31 -10 -48 -16 -21 -5 -33 -15 -33 -26 0 -23 32 -82 78
-143 36 -49 140 -129 167 -129 8 0 26 -5 40 -12 39 -17 125 12 164 57 60 69
52 145 -30 281 -54 91 -67 131 -50 163 9 16 21 21 51 21 34 0 46 -7 93 -54 53
-52 97 -125 97 -159 0 -29 30 -32 76 -8 l42 23 -13 36 c-43 117 -133 224 -227
267 -52 24 -124 32 -158 17z"/>
<path d="M8296 3189 c-21 -16 -26 -29 -26 -64 0 -34 5 -46 25 -59 36 -23 63
-20 96 13 75 76 -11 176 -95 110z"/>
<path d="M7157 2876 c-31 -13 -72 -35 -90 -49 -38 -29 -83 -91 -92 -127 -5
-22 -2 -27 28 -38 41 -15 67 -15 67 -2 0 6 19 31 41 55 45 49 100 71 153 61
56 -11 64 -22 36 -50 -13 -15 -28 -26 -34 -26 -6 0 -30 -15 -52 -33 -37 -28
-68 -49 -163 -108 -14 -9 -27 -22 -28 -30 -3 -13 38 -63 84 -103 29 -24 105
-38 170 -30 102 12 205 108 218 203 17 124 -31 221 -134 274 -68 34 -126 35
-204 3z m231 -238 c4 -35 -30 -100 -65 -123 -39 -26 -108 -24 -136 3 l-21 22
34 30 c19 16 40 29 45 30 6 0 32 16 60 35 56 41 79 41 83 3z"/>
<path d="M3298 2823 c-40 -52 -37 -56 125 -170 l38 -27 24 30 c43 51 37 59
-117 170 l-43 31 -27 -34z"/>
<path d="M3674 2703 c-32 -54 -63 -106 -69 -115 -5 -9 -38 -63 -73 -120 -35
-57 -68 -112 -75 -123 -6 -11 -22 -37 -35 -57 -22 -34 -24 -78 -3 -78 5 0 24
-11 44 -24 30 -21 38 -22 47 -11 11 13 68 104 94 150 6 11 24 39 39 63 15 23
40 64 55 91 15 27 55 94 90 150 35 55 61 105 58 110 -8 12 -91 61 -104 61 -5
0 -36 -44 -68 -97z"/>
<path d="M3922 2582 c-23 -48 -42 -93 -42 -99 0 -7 -4 -13 -10 -13 -5 0 -13
-12 -16 -27 -4 -16 -12 -35 -19 -43 -11 -13 -43 -79 -59 -120 -3 -8 -19 -37
-35 -65 -16 -27 -30 -57 -30 -66 -1 -9 -8 -22 -16 -29 -8 -7 -15 -21 -15 -31
0 -21 48 -57 87 -65 28 -5 29 -4 171 283 78 158 142 294 142 300 0 12 -88 63
-107 63 -4 0 -27 -39 -51 -88z"/>
<path d="M6700 2609 c-19 -5 -52 -14 -72 -19 -20 -6 -61 -30 -91 -55 -81 -66
-84 -111 -7 -130 18 -5 29 -1 40 13 8 10 35 33 59 50 55 40 123 44 165 11 15
-12 25 -26 24 -31 -2 -6 -73 -40 -157 -77 -85 -36 -159 -74 -164 -82 -8 -12
-1 -30 27 -72 63 -94 174 -130 284 -92 77 27 112 54 152 120 21 34 24 52 24
120 0 69 -4 86 -27 127 -36 61 -80 93 -154 112 -34 9 -62 16 -64 15 -2 0 -20
-5 -39 -10z m160 -282 c0 -35 -6 -49 -29 -71 -34 -32 -82 -45 -131 -35 -34 7
-63 34 -57 53 3 10 8 13 67 38 19 9 49 21 65 29 32 14 65 26 78 28 4 1 7 -18
7 -42z"/>
<path d="M4172 2505 c-12 -31 -22 -64 -22 -74 0 -9 -4 -21 -9 -26 -6 -6 -14
-28 -20 -50 -5 -22 -23 -78 -40 -125 -42 -115 -41 -126 12 -150 68 -31 71 -30
102 68 15 48 34 101 41 119 8 17 14 35 14 40 1 13 34 49 57 62 47 25 140 3
149 -36 11 -42 -3 -128 -34 -213 -50 -133 -46 -147 49 -164 l36 -6 32 92 c45
130 71 223 71 257 0 123 -147 219 -277 182 -30 -9 -31 -8 -30 16 2 24 -13 34
-94 59 -12 4 -21 -9 -37 -51z"/>
<path d="M6240 2443 c-41 -21 -42 -34 -9 -135 28 -87 35 -177 18 -211 -8 -15
-35 -37 -59 -49 -37 -19 -45 -27 -43 -48 5 -50 13 -69 33 -75 24 -7 80 24 109
61 24 30 27 30 35 0 l6 -25 53 15 c28 9 56 20 61 25 6 5 3 31 -8 66 -9 32 -21
78 -27 103 -5 25 -12 52 -16 60 -3 8 -12 38 -19 65 -43 171 -38 160 -70 163
-16 1 -45 -6 -64 -15z"/>
<path d="M5635 2338 c-31 -17 -55 -50 -55 -78 0 -41 52 -90 95 -90 29 0 75 55
75 90 0 22 -9 41 -29 61 -31 31 -53 35 -86 17z"/>
<path d="M5058 2332 c-17 -3 -28 -60 -28 -141 0 -76 -2 -77 -127 -63 -59 7
-122 15 -140 18 -35 7 -46 -6 -58 -67 -6 -32 -4 -37 17 -42 12 -4 42 -7 66 -7
51 0 193 -28 206 -40 15 -15 -13 -149 -33 -159 -10 -6 -39 -4 -76 4 -33 8
-103 16 -155 17 l-95 3 -3 -46 -3 -46 93 -17 c51 -9 131 -21 178 -26 47 -5
108 -14 135 -19 28 -5 53 -7 56 -5 8 4 26 96 34 164 7 68 32 246 51 365 7 49
10 92 6 96 -8 8 -100 16 -124 11z"/>
</g>
</svg>
